<?xml version="1.0" encoding="UTF-8"?>
<svg width="64px" height="64px" viewBox="0 0 64 64" version="1.1" xmlns="http://www.w3.org/2000/svg">
    <title>Icon-Architecture/48/Arch_Amazon-EventBridge_48</title>
    <g id="Icon-Architecture/48/Arch_Amazon-EventBridge_48" stroke="none" stroke-width="1" fill="none" fill-rule="evenodd">
        <g id="Icon-Architecture-BG/48/Application-Integration" fill="#E7157B">
            <rect id="Rectangle" x="0" y="0" width="64" height="64"></rect>
        </g>
        <path d="M32,10 C20.972,10 12,18.972 12,30 C12,36.154 14.722,41.867 19.387,45.709 L19.387,52.636 C19.387,53.269 19.773,53.841 20.362,54.078 C20.55,54.153 20.747,54.19 20.943,54.19 C21.346,54.19 21.741,54.029 22.031,53.726 L26.297,49.303 L27.091,49.303 C28.689,49.303 30.271,49.077 31.799,48.63 L32,48.571 L32.201,48.63 C33.729,49.077 35.311,49.303 36.909,49.303 L37.703,49.303 L41.969,53.726 C42.259,54.029 42.654,54.19 43.057,54.19 C43.253,54.19 43.45,54.153 43.638,54.078 C44.227,53.841 44.613,53.269 44.613,52.636 L44.613,45.709 C49.278,41.867 52,36.154 52,30 C52,18.972 43.028,10 32,10 M42.613,44.627 C42.281,44.901 42.09,45.307 42.09,45.735 L42.09,51.138 L38.769,47.696 C38.487,47.404 38.099,47.238 37.695,47.238 L36.785,47.238 C35.313,47.238 33.856,47.024 32.448,46.6 L32,46.465 L31.552,46.6 C30.144,47.024 28.687,47.238 27.215,47.238 L26.305,47.238 C25.901,47.238 25.513,47.404 25.231,47.696 L21.91,51.138 L21.91,45.735 C21.91,45.307 21.719,44.901 21.387,44.627 C17.053,41.048 14.523,35.706 14.523,30 C14.523,20.365 22.365,12.523 32,12.523 C41.635,12.523 49.477,20.365 49.477,30 C49.477,35.706 46.947,41.048 42.613,44.627 M32,19 C26.486,19 22,23.486 22,29 C22,34.514 26.486,39 32,39 C37.514,39 42,34.514 42,29 C42,23.486 37.514,19 32,19 M32,37 C27.589,37 24,33.411 24,29 C24,24.589 27.589,21 32,21 C36.411,21 40,24.589 40,29 C40,33.411 36.411,37 32,37 M28,28 L36,28 L36,30 L28,30 L28,28 Z M29,24 L35,24 L35,26 L29,26 L29,24 Z M29,32 L35,32 L35,34 L29,34 L29,32 Z" id="Amazon-EventBridge_Icon_48_Squid" fill="#FFFFFF"></path>
    </g>
</svg>
