<?xml version="1.0" encoding="UTF-8"?>
<svg width="64px" height="64px" viewBox="0 0 64 64" version="1.1" xmlns="http://www.w3.org/2000/svg">
    <title>Icon-Architecture/48/Arch_Amazon-Simple-Queue-Service_48</title>
    <g id="Icon-Architecture/48/Arch_Amazon-SQS_48" stroke="none" stroke-width="1" fill="none" fill-rule="evenodd">
        <g id="Icon-Architecture-BG/48/Application-Integration" fill="#E7157B">
            <rect id="Rectangle" x="0" y="0" width="64" height="64"></rect>
        </g>
        <path d="M17.003,25.769 L19.003,27.169 L19.003,22.831 L17.003,24.231 L17.003,25.769 Z M14.003,26.5 C14.003,27.327 13.331,28 12.503,28 C11.676,28 11.003,27.327 11.003,26.5 C11.003,25.673 11.676,25 12.503,25 C13.331,25 14.003,25.673 14.003,26.5 L14.003,26.5 Z M21.003,21 C20.451,21 20.003,21.448 20.003,22 L20.003,28 C20.003,28.552 20.451,29 21.003,29 L25.003,29 L25.003,27 L22.003,27 L22.003,23 L25.003,23 L25.003,21 L21.003,21 Z M12.503,23 C10.572,23 9.003,24.57 9.003,26.5 C9.003,28.43 10.572,30 12.503,30 C13.698,30 14.748,29.388 15.349,28.462 L20.003,31.713 L20.003,33 L17.003,33 L17.003,35 L20.003,35 L20.003,37 C20.003,37.552 20.451,38 21.003,38 L25.003,38 L25.003,36 L22.003,36 L22.003,32 L25.003,32 L25.003,30 L21.26,30 L15.349,25.538 C14.748,24.612 13.698,24 12.503,24 L12.503,23 Z M47.003,38.231 L45.003,36.831 L45.003,41.169 L47.003,39.769 L47.003,38.231 Z M50.003,37.5 C50.003,36.673 50.676,36 51.503,36 C52.331,36 53.003,36.673 53.003,37.5 C53.003,38.327 52.331,39 51.503,39 C50.676,39 50.003,38.327 50.003,37.5 L50.003,37.5 Z M39.003,35 L42.003,35 L42.003,39 L39.003,39 L39.003,41 L43.003,41 C43.555,41 44.003,40.552 44.003,40 L44.003,34 C44.003,33.448 43.555,33 43.003,33 L39.003,33 L39.003,35 Z M51.503,34 C50.308,34 49.258,34.612 48.657,35.538 L44.003,32.287 L44.003,31 L47.003,31 L47.003,29 L44.003,29 L44.003,27 C44.003,26.448 43.555,26 43.003,26 L39.003,26 L39.003,28 L42.003,28 L42.003,32 L39.003,32 L39.003,34 L42.746,34 L48.657,38.462 C49.258,39.388 50.308,40 51.503,40 C53.434,40 55.003,38.43 55.003,36.5 L55.003,37.5 C55.003,35.57 53.434,34 51.503,34 L51.503,34 Z M32,12 C23.641,12 16.784,17.371 14.586,24.687 L16.508,25.265 C18.466,18.751 24.64,14 32,14 C39.36,14 45.534,18.751 47.492,25.265 L49.414,24.687 C47.216,17.371 40.359,12 32,12 L32,12 Z M32,52 C40.359,52 47.216,46.629 49.414,39.313 L47.492,38.735 C45.534,45.249 39.36,50 32,50 C24.64,50 18.466,45.249 16.508,38.735 L14.586,39.313 C16.784,46.629 23.641,52 32,52 L32,52 Z" id="Amazon-Simple-Queue-Service_Icon_48_Squid" fill="#FFFFFF"></path>
    </g>
</svg>
